<?xml version="1.0" encoding="utf-8"?>
<!-- Generator: Adobe Illustrator 15.1.0, SVG Export Plug-In . SVG Version: 6.00 Build 0)  -->
<!DOCTYPE svg PUBLIC "-//W3C//DTD SVG 1.1//EN" "http://www.w3.org/Graphics/SVG/1.1/DTD/svg11.dtd">
<svg version="1.1" id="圖層_1" focusable="false" xmlns="http://www.w3.org/2000/svg" xmlns:xlink="http://www.w3.org/1999/xlink"
	 x="0px" y="0px" width="1920px" height="1080px" viewBox="0 0 1920 1080" enable-background="new 0 0 1920 1080"
	 xml:space="preserve">
<path fill="#0500DF" d="M1432.5,755.999V54c0-33.75-20.25-54-54-54H690C575.25,0,487.5,87.75,487.5,202.5v675
	c0,114.749,87.75,202.5,202.5,202.5h688.5c27,0,54-20.251,54-54.001v-33.75c0-13.499-6.75-26.999-20.25-40.5
	c-6.75-33.75-6.75-128.25,0-155.25C1425.75,789.749,1432.5,776.249,1432.5,755.999L1432.5,755.999z M1122.591,307.589
	c1.266-2.553,3.712-3.839,6.159-3.839s4.894,1.286,6.159,3.839l23.583,47.777l52.734,7.657c5.632,0.822,7.889,7.741,3.818,11.728
	l-38.159,37.188l9.007,52.502c0.76,4.451-2.763,8.059-6.771,8.059c-1.055,0-2.151-0.254-3.206-0.802l-47.166-24.785l-47.166,24.785
	c-1.055,0.548-2.151,0.802-3.206,0.802c-4.008,0-7.53-3.607-6.771-8.059l9.007-52.502l-38.158-37.188
	c-4.093-3.986-1.836-10.905,3.817-11.729l52.713-7.656L1122.591,307.589L1122.591,307.589z M1000.479,162.021
	c28.836,0,57.502,5.253,85.177,15.631c7.893,0.006,14.287,6.408,14.281,14.301s-6.408,14.287-14.302,14.281
	c-1.707-0.001-3.4-0.309-5-0.907c-1.413,0-6.518-0.442-8.712-0.442c-110.341,0-200.095,89.754-200.095,200.095
	c0,110.32,89.754,200.096,200.095,200.096c2.173,0,7.341-0.443,8.712-0.443c8.29,0,14.344,6.623,14.344,14.302
	c0,6.286-4.092,11.622-9.745,13.542c-27.569,10.272-56.088,15.482-84.775,15.482C866.491,647.979,757.5,538.966,757.5,405
	C757.5,271.013,866.491,162.021,1000.479,162.021z M1290.75,945H690c-40.5,0-67.5-27-67.5-67.5c0-40.501,33.75-67.5,67.5-67.5
	h600.75V945z"/>
</svg>
