<?xml version="1.0" encoding="utf-8"?>
<!-- Generator: Adobe Illustrator 15.1.0, SVG Export Plug-In . SVG Version: 6.00 Build 0)  -->
<!DOCTYPE svg PUBLIC "-//W3C//DTD SVG 1.1//EN" "http://www.w3.org/Graphics/SVG/1.1/DTD/svg11.dtd">
<svg version="1.1" id="圖層_1" focusable="false" xmlns="http://www.w3.org/2000/svg" xmlns:xlink="http://www.w3.org/1999/xlink"
	 x="0px" y="0px" width="1920px" height="1080px" viewBox="0 0 1920 1080" enable-background="new 0 0 1920 1080"
	 xml:space="preserve">
<path fill="#B9FF9F" d="M1513.711,508.36l-105.656-183.064c2.259-4.519,3.955-9.604,3.955-15.255
	c0-16.951-14.125-31.077-31.075-31.643L1263.976,76.123c1.131-3.39,2.26-6.779,2.26-10.17c0-18.079-14.69-32.205-32.206-32.205
	c-10.17,0-18.646,4.52-24.861,11.865H984.296C978.645,38.271,970.169,33.75,960,33.75s-18.645,4.521-24.296,11.865H711.961
	c-6.217-7.345-14.69-11.865-24.861-11.865c-17.515,0-32.206,14.124-32.206,32.206c0,3.39,1.131,7.345,2.262,10.169l-118.09,205.101
	c-11.298,5.084-19.21,15.82-19.21,28.816c0,1.128,0.565,2.259,0.565,3.39L407.983,507.796c-15.255,2.824-26.557,15.82-26.557,31.641
	c0,15.255,10.735,28.251,25.426,31.641l116.393,201.146c-1.13,3.39-1.695,6.214-1.695,10.169c0,15.256,10.734,28.251,25.426,31.076
	l109.049,189.278c-1.131,3.39-2.26,7.345-2.26,11.3c0,18.079,14.69,32.206,32.206,32.206c10.17,0,18.646-4.521,24.296-11.3h225.439
	c5.649,6.777,14.689,11.298,24.294,11.298s18.645-4.521,24.296-11.301h226.005c5.648,6.215,14.124,10.17,23.165,10.17
	c18.079,0,32.206-14.689,32.206-32.206c0-3.39-0.563-6.214-1.694-9.039l109.049-190.409c14.689-2.824,25.426-15.82,25.426-31.075
	c0-3.39-0.564-6.779-1.695-10.169l115.828-201.146c14.689-2.825,25.991-15.82,25.991-31.641
	C1538.572,524.18,1527.835,511.184,1513.711,508.36z M676.363,950.763l-92.096-159.897h92.096V950.763z M676.363,773.914h-92.096
	c-0.565-2.259-1.696-4.518-2.824-6.779l94.92-100.005V773.914z M676.363,642.267L570.142,754.704
	c-2.825-1.13-5.651-2.826-8.476-3.39L444.146,547.91c1.129-2.825,1.129-5.651,1.129-8.476c0-2.825,0-5.084-0.565-7.345
	l109.614-189.844c5.65-0.565,11.3-2.262,16.385-5.651l105.657,109.613v196.059H676.363z M676.363,426.431l-96.616-100.005
	c2.824-4.521,4.521-10.17,4.521-16.384c0-0.565-0.565-1.696-0.565-2.262l92.661-33.336V426.431z M676.363,256.363l-92.096,33.337
	l92.096-159.334V256.363z M1365.114,338.856l1.695,2.825l-74.583,352.567L1157.754,552.43l206.795-214.139L1365.114,338.856z
	 M967.91,749.054l24.296,24.86H944.18L967.91,749.054z M967.345,725.323L791.628,545.085l167.807-177.979l175.154,184.759
	L967.345,725.323z M978.645,737.754l167.244-173.459l142.383,150.293l-12.429,59.326H1014.24L978.645,737.754z M1218.211,93.642
	c2.259,1.13,4.519,2.261,7.345,2.826l122.042,212.443v1.131c0,6.214,1.694,11.863,4.521,16.383L1146.454,540L971.302,355.241
	L1218.211,93.642z M1199.001,89.121L959.435,342.811L839.087,215.684l350.871-126.563H1199.001z M938.528,89.121
	c5.649,5.648,12.994,9.038,21.472,9.038s15.82-3.39,21.472-9.038h158.203L826.658,202.122L719.306,89.121H938.528z M693.316,100.987
	l2.259-4.519c1.906-0.487,3.791-1.053,5.651-1.696l107.917,113.569l-115.827,41.81V100.987z M693.316,268.23l128.256-46.33
	l125.997,133.342L779.763,532.655l-86.446-88.705V268.23z M693.316,463.723l76.84,79.667l-76.841,80.797L693.316,463.723
	L693.316,463.723z M693.316,649.048l88.705-93.791L956.61,736.625l-36.161,37.289H693.315L693.316,649.048L693.316,649.048z
	 M708.006,990.879c-3.39-3.391-7.345-5.649-12.431-7.346l-2.259-3.39V790.865h210.747L710.83,990.879H708.006z M982.037,990.879
	c-5.651-5.084-13.56-9.039-22.037-9.039s-16.384,3.955-22.036,9.039H734.559l193.233-200.014h80.798l193.233,200.014H982.037
	L982.037,990.879z M1235.162,966.018l-9.041,15.82c-2.824,0.565-5.084,1.693-7.345,2.824l-188.148-193.799h241.262L1235.162,966.018
	z M1262.28,919.122l27.122-128.257h46.33L1262.28,919.122z M1335.732,773.914h-42.94l9.604-44.634l36.161,38.42
	C1337.429,769.395,1336.298,771.654,1335.732,773.914L1335.732,773.914z M1475.291,547.345l-116.959,203.97
	c-2.824,1.129-5.65,2.26-8.476,3.953l-43.506-46.33l72.888-345.786l96.615,167.244c-0.563,2.824-1.693,5.648-1.693,9.039
	C1474.16,542.259,1474.726,544.52,1475.291,547.345z"/>
</svg>
